<mxfile host="app.diagrams.net" modified="2023-11-29T21:46:37.408Z" agent="Mozilla/5.0 (Windows NT 10.0; Win64; x64) AppleWebKit/537.36 (KHTML, like Gecko) Chrome/119.0.0.0 Safari/537.36" etag="tlR5L5B2kdw0V12pNSL6" version="22.1.4" type="device">
  <diagram name="Seite-1" id="_pNgE2l9mb7FABNwilBW">
    <mxGraphModel dx="713" dy="780" grid="1" gridSize="10" guides="1" tooltips="1" connect="1" arrows="1" fold="1" page="1" pageScale="1" pageWidth="827" pageHeight="1169" math="0" shadow="0">
      <root>
        <mxCell id="0" />
        <mxCell id="1" parent="0" />
        <mxCell id="x6vma1YmDRyDS8Wvx9YM-2" value="" style="rounded=0;whiteSpace=wrap;html=1;" parent="1" vertex="1">
          <mxGeometry x="870" y="60" width="1180" height="680" as="geometry" />
        </mxCell>
        <mxCell id="x6vma1YmDRyDS8Wvx9YM-3" value="&lt;b&gt;&lt;font style=&quot;font-size: 24px;&quot;&gt;Rasa Malang&lt;/font&gt;&lt;/b&gt;" style="text;html=1;strokeColor=none;fillColor=none;align=center;verticalAlign=middle;whiteSpace=wrap;rounded=0;" parent="1" vertex="1">
          <mxGeometry x="1380" y="70" width="160" height="30" as="geometry" />
        </mxCell>
        <mxCell id="x6vma1YmDRyDS8Wvx9YM-4" style="rounded=0;orthogonalLoop=1;jettySize=auto;html=1;exitX=1;exitY=0.5;exitDx=0;exitDy=0;entryX=0;entryY=0.5;entryDx=0;entryDy=0;dashed=1;endArrow=open;endFill=0;" parent="1" source="x6vma1YmDRyDS8Wvx9YM-6" target="x6vma1YmDRyDS8Wvx9YM-9" edge="1">
          <mxGeometry relative="1" as="geometry">
            <mxPoint x="1170" y="193.03999999999996" as="sourcePoint" />
            <mxPoint x="1340" y="193.03999999999996" as="targetPoint" />
          </mxGeometry>
        </mxCell>
        <mxCell id="x6vma1YmDRyDS8Wvx9YM-5" value="&lt;font style=&quot;font-size: 14px;&quot;&gt;&amp;lt;&amp;lt;include&amp;gt;&amp;gt;&lt;/font&gt;" style="edgeLabel;html=1;align=center;verticalAlign=middle;resizable=0;points=[];" parent="x6vma1YmDRyDS8Wvx9YM-4" vertex="1" connectable="0">
          <mxGeometry x="0.2526" y="2" relative="1" as="geometry">
            <mxPoint x="-12" y="-13" as="offset" />
          </mxGeometry>
        </mxCell>
        <mxCell id="x6vma1YmDRyDS8Wvx9YM-6" value="&lt;font style=&quot;font-size: 18px;&quot;&gt;Create&lt;br&gt;Account&lt;/font&gt;" style="ellipse;whiteSpace=wrap;html=1;" parent="1" vertex="1">
          <mxGeometry x="920" y="158.75" width="140" height="70" as="geometry" />
        </mxCell>
        <mxCell id="x6vma1YmDRyDS8Wvx9YM-7" value="" style="endArrow=none;html=1;rounded=0;entryX=0;entryY=0.5;entryDx=0;entryDy=0;" parent="1" target="x6vma1YmDRyDS8Wvx9YM-6" edge="1">
          <mxGeometry width="50" height="50" relative="1" as="geometry">
            <mxPoint x="840" y="348.75" as="sourcePoint" />
            <mxPoint x="990" y="238.75" as="targetPoint" />
          </mxGeometry>
        </mxCell>
        <mxCell id="x6vma1YmDRyDS8Wvx9YM-8" value="&lt;font style=&quot;font-size: 18px;&quot;&gt;Login&lt;/font&gt;" style="ellipse;whiteSpace=wrap;html=1;" parent="1" vertex="1">
          <mxGeometry x="920" y="258.75" width="140" height="70" as="geometry" />
        </mxCell>
        <mxCell id="x6vma1YmDRyDS8Wvx9YM-9" value="&lt;font style=&quot;font-size: 18px;&quot;&gt;Verify&lt;br&gt;Email&lt;/font&gt;" style="ellipse;whiteSpace=wrap;html=1;" parent="1" vertex="1">
          <mxGeometry x="1160" y="158.75" width="140" height="70" as="geometry" />
        </mxCell>
        <mxCell id="x6vma1YmDRyDS8Wvx9YM-10" value="&lt;font style=&quot;font-size: 17px;&quot;&gt;Input&lt;br&gt;Information&lt;/font&gt;" style="ellipse;whiteSpace=wrap;html=1;" parent="1" vertex="1">
          <mxGeometry x="1160" y="248.75" width="140" height="70" as="geometry" />
        </mxCell>
        <mxCell id="x6vma1YmDRyDS8Wvx9YM-11" style="rounded=0;orthogonalLoop=1;jettySize=auto;html=1;exitX=1;exitY=1;exitDx=0;exitDy=0;entryX=0;entryY=0.5;entryDx=0;entryDy=0;dashed=1;endArrow=open;endFill=0;" parent="1" source="x6vma1YmDRyDS8Wvx9YM-6" target="x6vma1YmDRyDS8Wvx9YM-10" edge="1">
          <mxGeometry relative="1" as="geometry">
            <mxPoint x="1180" y="243.75" as="sourcePoint" />
            <mxPoint x="1320" y="243.75" as="targetPoint" />
          </mxGeometry>
        </mxCell>
        <mxCell id="x6vma1YmDRyDS8Wvx9YM-13" value="" style="endArrow=none;html=1;rounded=0;entryX=0;entryY=0.5;entryDx=0;entryDy=0;" parent="1" target="x6vma1YmDRyDS8Wvx9YM-8" edge="1">
          <mxGeometry width="50" height="50" relative="1" as="geometry">
            <mxPoint x="840" y="368.75" as="sourcePoint" />
            <mxPoint x="1040" y="173.75" as="targetPoint" />
          </mxGeometry>
        </mxCell>
        <mxCell id="x6vma1YmDRyDS8Wvx9YM-14" value="" style="endArrow=none;html=1;rounded=0;entryX=0;entryY=0.5;entryDx=0;entryDy=0;" parent="1" target="x6vma1YmDRyDS8Wvx9YM-20" edge="1">
          <mxGeometry width="50" height="50" relative="1" as="geometry">
            <mxPoint x="840" y="388.75" as="sourcePoint" />
            <mxPoint x="1030" y="388.75" as="targetPoint" />
          </mxGeometry>
        </mxCell>
        <mxCell id="rtAmJRzeHxMqcajNsfK1-2" style="edgeStyle=orthogonalEdgeStyle;rounded=0;orthogonalLoop=1;jettySize=auto;html=1;exitX=0;exitY=0.5;exitDx=0;exitDy=0;entryX=1;entryY=0.5;entryDx=0;entryDy=0;endArrow=open;endFill=0;dashed=1;" parent="1" source="rtAmJRzeHxMqcajNsfK1-1" target="x6vma1YmDRyDS8Wvx9YM-15" edge="1">
          <mxGeometry relative="1" as="geometry" />
        </mxCell>
        <mxCell id="rtAmJRzeHxMqcajNsfK1-4" value="&lt;font style=&quot;font-size: 14px;&quot;&gt;&amp;lt;&amp;lt;extend&amp;gt;&amp;gt;&lt;/font&gt;" style="edgeLabel;html=1;align=center;verticalAlign=middle;resizable=0;points=[];" parent="rtAmJRzeHxMqcajNsfK1-2" vertex="1" connectable="0">
          <mxGeometry x="0.165" y="-1" relative="1" as="geometry">
            <mxPoint x="8" y="-16" as="offset" />
          </mxGeometry>
        </mxCell>
        <mxCell id="x6vma1YmDRyDS8Wvx9YM-15" value="&lt;font style=&quot;font-size: 18px;&quot;&gt;View&lt;br&gt;Itineraries&lt;/font&gt;" style="ellipse;whiteSpace=wrap;html=1;" parent="1" vertex="1">
          <mxGeometry x="920" y="591.25" width="140" height="70" as="geometry" />
        </mxCell>
        <mxCell id="x6vma1YmDRyDS8Wvx9YM-16" value="" style="endArrow=none;html=1;rounded=0;entryX=0;entryY=0.5;entryDx=0;entryDy=0;" parent="1" target="x6vma1YmDRyDS8Wvx9YM-15" edge="1">
          <mxGeometry width="50" height="50" relative="1" as="geometry">
            <mxPoint x="840" y="438.75" as="sourcePoint" />
            <mxPoint x="1040" y="503.75" as="targetPoint" />
          </mxGeometry>
        </mxCell>
        <mxCell id="x6vma1YmDRyDS8Wvx9YM-17" value="&lt;font style=&quot;font-size: 17px;&quot;&gt;Select Tourist &lt;br&gt;Attractions&lt;/font&gt;" style="ellipse;whiteSpace=wrap;html=1;" parent="1" vertex="1">
          <mxGeometry x="1160" y="336.25" width="140" height="70" as="geometry" />
        </mxCell>
        <mxCell id="x6vma1YmDRyDS8Wvx9YM-18" value="&lt;font style=&quot;font-size: 17px;&quot;&gt;Select Preferences&lt;/font&gt;" style="ellipse;whiteSpace=wrap;html=1;" parent="1" vertex="1">
          <mxGeometry x="1160" y="423.75" width="140" height="70" as="geometry" />
        </mxCell>
        <mxCell id="x6vma1YmDRyDS8Wvx9YM-19" value="&lt;font style=&quot;font-size: 18px;&quot;&gt;Select Restaurants&lt;/font&gt;" style="ellipse;whiteSpace=wrap;html=1;" parent="1" vertex="1">
          <mxGeometry x="1160" y="508.75" width="140" height="70" as="geometry" />
        </mxCell>
        <mxCell id="x6vma1YmDRyDS8Wvx9YM-20" value="&lt;font style=&quot;font-size: 18px;&quot;&gt;Create&lt;br&gt;Itinerary&lt;/font&gt;" style="ellipse;whiteSpace=wrap;html=1;" parent="1" vertex="1">
          <mxGeometry x="920" y="423.75" width="140" height="70" as="geometry" />
        </mxCell>
        <mxCell id="x6vma1YmDRyDS8Wvx9YM-21" style="rounded=0;orthogonalLoop=1;jettySize=auto;html=1;exitX=1;exitY=0;exitDx=0;exitDy=0;entryX=0;entryY=0.5;entryDx=0;entryDy=0;dashed=1;endArrow=open;endFill=0;" parent="1" source="x6vma1YmDRyDS8Wvx9YM-20" target="x6vma1YmDRyDS8Wvx9YM-17" edge="1">
          <mxGeometry relative="1" as="geometry">
            <mxPoint x="1159" y="213.75" as="sourcePoint" />
            <mxPoint x="1360" y="273.75" as="targetPoint" />
          </mxGeometry>
        </mxCell>
        <mxCell id="x6vma1YmDRyDS8Wvx9YM-22" value="&lt;font style=&quot;font-size: 14px;&quot;&gt;&amp;lt;&amp;lt;include&amp;gt;&amp;gt;&lt;/font&gt;" style="edgeLabel;html=1;align=center;verticalAlign=middle;resizable=0;points=[];" parent="x6vma1YmDRyDS8Wvx9YM-21" vertex="1" connectable="0">
          <mxGeometry x="0.2526" y="2" relative="1" as="geometry">
            <mxPoint x="-4" y="6" as="offset" />
          </mxGeometry>
        </mxCell>
        <mxCell id="x6vma1YmDRyDS8Wvx9YM-23" style="rounded=0;orthogonalLoop=1;jettySize=auto;html=1;exitX=1;exitY=0.5;exitDx=0;exitDy=0;entryX=0;entryY=0.5;entryDx=0;entryDy=0;dashed=1;endArrow=open;endFill=0;" parent="1" source="x6vma1YmDRyDS8Wvx9YM-20" target="x6vma1YmDRyDS8Wvx9YM-18" edge="1">
          <mxGeometry relative="1" as="geometry">
            <mxPoint x="1180" y="398.75" as="sourcePoint" />
            <mxPoint x="1360" y="398.75" as="targetPoint" />
          </mxGeometry>
        </mxCell>
        <mxCell id="x6vma1YmDRyDS8Wvx9YM-24" value="&lt;font style=&quot;font-size: 14px;&quot;&gt;&amp;lt;&amp;lt;include&amp;gt;&amp;gt;&lt;/font&gt;" style="edgeLabel;html=1;align=center;verticalAlign=middle;resizable=0;points=[];" parent="x6vma1YmDRyDS8Wvx9YM-23" vertex="1" connectable="0">
          <mxGeometry x="0.2526" y="2" relative="1" as="geometry">
            <mxPoint x="-13" y="-16" as="offset" />
          </mxGeometry>
        </mxCell>
        <mxCell id="x6vma1YmDRyDS8Wvx9YM-25" style="rounded=0;orthogonalLoop=1;jettySize=auto;html=1;exitX=0.794;exitY=0.89;exitDx=0;exitDy=0;entryX=0;entryY=0.5;entryDx=0;entryDy=0;dashed=1;endArrow=open;endFill=0;exitPerimeter=0;" parent="1" source="x6vma1YmDRyDS8Wvx9YM-20" target="x6vma1YmDRyDS8Wvx9YM-19" edge="1">
          <mxGeometry relative="1" as="geometry">
            <mxPoint x="1159" y="423.75" as="sourcePoint" />
            <mxPoint x="1360" y="503.75" as="targetPoint" />
          </mxGeometry>
        </mxCell>
        <mxCell id="x6vma1YmDRyDS8Wvx9YM-26" value="&lt;font style=&quot;font-size: 14px;&quot;&gt;&amp;lt;&amp;lt;include&amp;gt;&amp;gt;&lt;/font&gt;" style="edgeLabel;html=1;align=center;verticalAlign=middle;resizable=0;points=[];" parent="x6vma1YmDRyDS8Wvx9YM-25" vertex="1" connectable="0">
          <mxGeometry x="0.2526" y="2" relative="1" as="geometry">
            <mxPoint x="-2" y="-11" as="offset" />
          </mxGeometry>
        </mxCell>
        <mxCell id="rtAmJRzeHxMqcajNsfK1-1" value="&lt;font style=&quot;font-size: 18px;&quot;&gt;Rate Itinerary&lt;/font&gt;" style="ellipse;whiteSpace=wrap;html=1;" parent="1" vertex="1">
          <mxGeometry x="1160" y="591.25" width="140" height="70" as="geometry" />
        </mxCell>
        <mxCell id="rtAmJRzeHxMqcajNsfK1-3" value="&lt;br&gt;" style="edgeLabel;html=1;align=center;verticalAlign=middle;resizable=0;points=[];" parent="1" vertex="1" connectable="0">
          <mxGeometry x="1236.4677449351452" y="556.7200062251634" as="geometry" />
        </mxCell>
        <mxCell id="cOvXOaNCuRGdCC9FQoUD-2" value="&lt;font style=&quot;font-size: 18px;&quot;&gt;Restaurant&lt;/font&gt;" style="shape=umlActor;verticalLabelPosition=bottom;verticalAlign=top;html=1;outlineConnect=0;" parent="1" vertex="1">
          <mxGeometry x="2090" y="245" width="30" height="60" as="geometry" />
        </mxCell>
        <mxCell id="cOvXOaNCuRGdCC9FQoUD-5" value="&lt;font style=&quot;font-size: 18px;&quot;&gt;Tourist&lt;/font&gt;" style="shape=umlActor;verticalLabelPosition=bottom;verticalAlign=top;html=1;outlineConnect=0;" parent="1" vertex="1">
          <mxGeometry x="797" y="346.25" width="30" height="60" as="geometry" />
        </mxCell>
        <mxCell id="fskcS8vX3NtvWgVeLze6-1" value="&lt;font style=&quot;font-size: 14px;&quot;&gt;&amp;lt;&amp;lt;include&amp;gt;&amp;gt;&lt;/font&gt;" style="edgeLabel;html=1;align=center;verticalAlign=middle;resizable=0;points=[];" parent="1" vertex="1" connectable="0">
          <mxGeometry x="1109.998181818182" y="248.75" as="geometry" />
        </mxCell>
        <mxCell id="fskcS8vX3NtvWgVeLze6-4" value="&lt;span style=&quot;font-size: 18px;&quot;&gt;Upload&lt;br&gt;Menu&lt;/span&gt;" style="ellipse;whiteSpace=wrap;html=1;" parent="1" vertex="1">
          <mxGeometry x="1400" y="110" width="140" height="70" as="geometry" />
        </mxCell>
        <mxCell id="fskcS8vX3NtvWgVeLze6-5" value="&lt;span style=&quot;font-size: 18px;&quot;&gt;Verify&lt;br&gt;Identity&lt;/span&gt;" style="ellipse;whiteSpace=wrap;html=1;" parent="1" vertex="1">
          <mxGeometry x="1640" y="110" width="140" height="70" as="geometry" />
        </mxCell>
        <mxCell id="fskcS8vX3NtvWgVeLze6-6" value="&lt;font style=&quot;font-size: 18px;&quot;&gt;Create&lt;br&gt;Account&lt;/font&gt;" style="ellipse;whiteSpace=wrap;html=1;" parent="1" vertex="1">
          <mxGeometry x="1879" y="110" width="140" height="70" as="geometry" />
        </mxCell>
        <mxCell id="fskcS8vX3NtvWgVeLze6-7" value="&lt;span style=&quot;font-size: 18px;&quot;&gt;Login&lt;/span&gt;" style="ellipse;whiteSpace=wrap;html=1;" parent="1" vertex="1">
          <mxGeometry x="1879" y="200" width="140" height="70" as="geometry" />
        </mxCell>
        <mxCell id="fskcS8vX3NtvWgVeLze6-8" value="&lt;font style=&quot;font-size: 17px;&quot;&gt;View Itinerary Insights&lt;/font&gt;" style="ellipse;whiteSpace=wrap;html=1;" parent="1" vertex="1">
          <mxGeometry x="1879" y="287.5" width="140" height="70" as="geometry" />
        </mxCell>
        <mxCell id="fskcS8vX3NtvWgVeLze6-9" value="&lt;span style=&quot;font-size: 18px;&quot;&gt;View&lt;br&gt;Reviews&lt;/span&gt;" style="ellipse;whiteSpace=wrap;html=1;" parent="1" vertex="1">
          <mxGeometry x="1879" y="375" width="140" height="70" as="geometry" />
        </mxCell>
        <mxCell id="fskcS8vX3NtvWgVeLze6-10" value="&lt;font style=&quot;font-size: 17px;&quot;&gt;Set Restaurant Information&lt;/font&gt;" style="ellipse;whiteSpace=wrap;html=1;" parent="1" vertex="1">
          <mxGeometry x="1640" y="200" width="140" height="70" as="geometry" />
        </mxCell>
        <mxCell id="fskcS8vX3NtvWgVeLze6-11" value="&lt;font style=&quot;font-size: 14px;&quot;&gt;Set Culinary&amp;nbsp;Criteria&lt;br&gt;and Restrictions&lt;/font&gt;" style="ellipse;whiteSpace=wrap;html=1;" parent="1" vertex="1">
          <mxGeometry x="1400" y="200" width="140" height="70" as="geometry" />
        </mxCell>
        <mxCell id="fskcS8vX3NtvWgVeLze6-12" value="&lt;span style=&quot;font-size: 18px;&quot;&gt;Upload&lt;br&gt;Pictures&lt;/span&gt;" style="ellipse;whiteSpace=wrap;html=1;" parent="1" vertex="1">
          <mxGeometry x="1400" y="287.5" width="140" height="70" as="geometry" />
        </mxCell>
        <mxCell id="fskcS8vX3NtvWgVeLze6-13" value="&lt;span style=&quot;font-size: 18px;&quot;&gt;Set Opening Hours&lt;/span&gt;" style="ellipse;whiteSpace=wrap;html=1;" parent="1" vertex="1">
          <mxGeometry x="1400" y="375" width="140" height="70" as="geometry" />
        </mxCell>
        <mxCell id="fskcS8vX3NtvWgVeLze6-15" style="rounded=0;orthogonalLoop=1;jettySize=auto;html=1;exitX=0;exitY=0.5;exitDx=0;exitDy=0;entryX=1;entryY=0.5;entryDx=0;entryDy=0;dashed=1;endArrow=open;endFill=0;" parent="1" source="fskcS8vX3NtvWgVeLze6-6" target="fskcS8vX3NtvWgVeLze6-5" edge="1">
          <mxGeometry relative="1" as="geometry">
            <mxPoint x="1070" y="155" as="sourcePoint" />
            <mxPoint x="1170" y="155" as="targetPoint" />
          </mxGeometry>
        </mxCell>
        <mxCell id="fskcS8vX3NtvWgVeLze6-16" value="&lt;font style=&quot;font-size: 14px;&quot;&gt;&amp;lt;&amp;lt;include&amp;gt;&amp;gt;&lt;/font&gt;" style="edgeLabel;html=1;align=center;verticalAlign=middle;resizable=0;points=[];" parent="fskcS8vX3NtvWgVeLze6-15" vertex="1" connectable="0">
          <mxGeometry x="0.2526" y="2" relative="1" as="geometry">
            <mxPoint x="14" y="-17" as="offset" />
          </mxGeometry>
        </mxCell>
        <mxCell id="fskcS8vX3NtvWgVeLze6-17" style="rounded=0;orthogonalLoop=1;jettySize=auto;html=1;entryX=1;entryY=0.5;entryDx=0;entryDy=0;dashed=1;endArrow=open;endFill=0;exitX=0;exitY=1;exitDx=0;exitDy=0;" parent="1" source="fskcS8vX3NtvWgVeLze6-6" target="fskcS8vX3NtvWgVeLze6-10" edge="1">
          <mxGeometry relative="1" as="geometry">
            <mxPoint x="1879" y="234" as="sourcePoint" />
            <mxPoint x="1780" y="234.38" as="targetPoint" />
          </mxGeometry>
        </mxCell>
        <mxCell id="fskcS8vX3NtvWgVeLze6-18" value="&lt;font style=&quot;font-size: 14px;&quot;&gt;&amp;lt;&amp;lt;include&amp;gt;&amp;gt;&lt;/font&gt;" style="edgeLabel;html=1;align=center;verticalAlign=middle;resizable=0;points=[];" parent="fskcS8vX3NtvWgVeLze6-17" vertex="1" connectable="0">
          <mxGeometry x="0.2526" y="2" relative="1" as="geometry">
            <mxPoint x="4" y="-12" as="offset" />
          </mxGeometry>
        </mxCell>
        <mxCell id="fskcS8vX3NtvWgVeLze6-19" style="rounded=0;orthogonalLoop=1;jettySize=auto;html=1;exitX=0;exitY=0;exitDx=0;exitDy=0;entryX=1;entryY=0.5;entryDx=0;entryDy=0;dashed=1;endArrow=open;endFill=0;" parent="1" source="fskcS8vX3NtvWgVeLze6-10" edge="1">
          <mxGeometry relative="1" as="geometry">
            <mxPoint x="1639" y="144.47" as="sourcePoint" />
            <mxPoint x="1540" y="144.47" as="targetPoint" />
          </mxGeometry>
        </mxCell>
        <mxCell id="fskcS8vX3NtvWgVeLze6-20" value="&lt;font style=&quot;font-size: 14px;&quot;&gt;&amp;lt;&amp;lt;include&amp;gt;&amp;gt;&lt;/font&gt;" style="edgeLabel;html=1;align=center;verticalAlign=middle;resizable=0;points=[];" parent="fskcS8vX3NtvWgVeLze6-19" vertex="1" connectable="0">
          <mxGeometry x="0.2526" y="2" relative="1" as="geometry">
            <mxPoint x="16" y="-1" as="offset" />
          </mxGeometry>
        </mxCell>
        <mxCell id="fskcS8vX3NtvWgVeLze6-21" style="rounded=0;orthogonalLoop=1;jettySize=auto;html=1;exitX=0;exitY=0.5;exitDx=0;exitDy=0;dashed=1;endArrow=open;endFill=0;" parent="1" source="fskcS8vX3NtvWgVeLze6-10" edge="1">
          <mxGeometry relative="1" as="geometry">
            <mxPoint x="1640" y="234.47" as="sourcePoint" />
            <mxPoint x="1541" y="234" as="targetPoint" />
          </mxGeometry>
        </mxCell>
        <mxCell id="fskcS8vX3NtvWgVeLze6-22" value="&lt;font style=&quot;font-size: 14px;&quot;&gt;&amp;lt;&amp;lt;include&amp;gt;&amp;gt;&lt;/font&gt;" style="edgeLabel;html=1;align=center;verticalAlign=middle;resizable=0;points=[];" parent="fskcS8vX3NtvWgVeLze6-21" vertex="1" connectable="0">
          <mxGeometry x="0.2526" y="2" relative="1" as="geometry">
            <mxPoint x="22" y="-16" as="offset" />
          </mxGeometry>
        </mxCell>
        <mxCell id="fskcS8vX3NtvWgVeLze6-23" style="rounded=0;orthogonalLoop=1;jettySize=auto;html=1;exitX=0;exitY=1;exitDx=0;exitDy=0;dashed=1;endArrow=open;endFill=0;entryX=1;entryY=0.5;entryDx=0;entryDy=0;" parent="1" source="fskcS8vX3NtvWgVeLze6-10" target="fskcS8vX3NtvWgVeLze6-12" edge="1">
          <mxGeometry relative="1" as="geometry">
            <mxPoint x="1650" y="245" as="sourcePoint" />
            <mxPoint x="1551" y="244" as="targetPoint" />
          </mxGeometry>
        </mxCell>
        <mxCell id="fskcS8vX3NtvWgVeLze6-24" value="&lt;font style=&quot;font-size: 14px;&quot;&gt;&amp;lt;&amp;lt;include&amp;gt;&amp;gt;&lt;/font&gt;" style="edgeLabel;html=1;align=center;verticalAlign=middle;resizable=0;points=[];" parent="fskcS8vX3NtvWgVeLze6-23" vertex="1" connectable="0">
          <mxGeometry x="0.2526" y="2" relative="1" as="geometry">
            <mxPoint x="14" y="-13" as="offset" />
          </mxGeometry>
        </mxCell>
        <mxCell id="fskcS8vX3NtvWgVeLze6-25" style="rounded=0;orthogonalLoop=1;jettySize=auto;html=1;exitX=0.5;exitY=1;exitDx=0;exitDy=0;dashed=1;endArrow=open;endFill=0;entryX=1;entryY=0.5;entryDx=0;entryDy=0;" parent="1" source="fskcS8vX3NtvWgVeLze6-10" target="fskcS8vX3NtvWgVeLze6-13" edge="1">
          <mxGeometry relative="1" as="geometry">
            <mxPoint x="1660" y="255" as="sourcePoint" />
            <mxPoint x="1561" y="254" as="targetPoint" />
          </mxGeometry>
        </mxCell>
        <mxCell id="fskcS8vX3NtvWgVeLze6-26" value="&lt;font style=&quot;font-size: 14px;&quot;&gt;&amp;lt;&amp;lt;include&amp;gt;&amp;gt;&lt;/font&gt;" style="edgeLabel;html=1;align=center;verticalAlign=middle;resizable=0;points=[];" parent="fskcS8vX3NtvWgVeLze6-25" vertex="1" connectable="0">
          <mxGeometry x="0.2526" y="2" relative="1" as="geometry">
            <mxPoint x="-5" y="-7" as="offset" />
          </mxGeometry>
        </mxCell>
        <mxCell id="fskcS8vX3NtvWgVeLze6-27" value="" style="endArrow=none;html=1;rounded=0;exitX=1;exitY=0.5;exitDx=0;exitDy=0;" parent="1" source="fskcS8vX3NtvWgVeLze6-6" edge="1">
          <mxGeometry width="50" height="50" relative="1" as="geometry">
            <mxPoint x="850" y="310" as="sourcePoint" />
            <mxPoint x="2080" y="250" as="targetPoint" />
          </mxGeometry>
        </mxCell>
        <mxCell id="fskcS8vX3NtvWgVeLze6-28" value="" style="endArrow=none;html=1;rounded=0;exitX=1;exitY=0.5;exitDx=0;exitDy=0;" parent="1" source="fskcS8vX3NtvWgVeLze6-7" edge="1">
          <mxGeometry width="50" height="50" relative="1" as="geometry">
            <mxPoint x="2029" y="155" as="sourcePoint" />
            <mxPoint x="2080" y="270" as="targetPoint" />
          </mxGeometry>
        </mxCell>
        <mxCell id="fskcS8vX3NtvWgVeLze6-29" value="" style="endArrow=none;html=1;rounded=0;exitX=1;exitY=0.5;exitDx=0;exitDy=0;" parent="1" source="fskcS8vX3NtvWgVeLze6-8" edge="1">
          <mxGeometry width="50" height="50" relative="1" as="geometry">
            <mxPoint x="2029" y="245" as="sourcePoint" />
            <mxPoint x="2080" y="290" as="targetPoint" />
          </mxGeometry>
        </mxCell>
        <mxCell id="fskcS8vX3NtvWgVeLze6-30" value="" style="endArrow=none;html=1;rounded=0;exitX=1;exitY=0.5;exitDx=0;exitDy=0;" parent="1" source="fskcS8vX3NtvWgVeLze6-9" edge="1">
          <mxGeometry width="50" height="50" relative="1" as="geometry">
            <mxPoint x="2039" y="255" as="sourcePoint" />
            <mxPoint x="2080" y="330" as="targetPoint" />
          </mxGeometry>
        </mxCell>
        <mxCell id="fskcS8vX3NtvWgVeLze6-87" value="&lt;font style=&quot;font-size: 18px;&quot;&gt;Government&lt;/font&gt;" style="shape=umlActor;verticalLabelPosition=bottom;verticalAlign=top;html=1;outlineConnect=0;" parent="1" vertex="1">
          <mxGeometry x="2090" y="605" width="30" height="60" as="geometry" />
        </mxCell>
        <mxCell id="fskcS8vX3NtvWgVeLze6-88" value="&lt;font style=&quot;font-size: 17px;&quot;&gt;View Itinerary Insights&lt;/font&gt;" style="ellipse;whiteSpace=wrap;html=1;" parent="1" vertex="1">
          <mxGeometry x="1640" y="470" width="140" height="70" as="geometry" />
        </mxCell>
        <mxCell id="fskcS8vX3NtvWgVeLze6-90" value="&lt;span style=&quot;font-size: 18px;&quot;&gt;Login&lt;/span&gt;" style="ellipse;whiteSpace=wrap;html=1;" parent="1" vertex="1">
          <mxGeometry x="1879" y="470" width="140" height="70" as="geometry" />
        </mxCell>
        <mxCell id="fskcS8vX3NtvWgVeLze6-91" value="&lt;span style=&quot;font-size: 18px;&quot;&gt;View&lt;br&gt;Datasets&lt;br&gt;&lt;/span&gt;" style="ellipse;whiteSpace=wrap;html=1;" parent="1" vertex="1">
          <mxGeometry x="1879" y="560" width="140" height="70" as="geometry" />
        </mxCell>
        <mxCell id="fskcS8vX3NtvWgVeLze6-94" value="&lt;font style=&quot;font-size: 17px;&quot;&gt;View Tourist&lt;br&gt;Data&lt;/font&gt;" style="ellipse;whiteSpace=wrap;html=1;" parent="1" vertex="1">
          <mxGeometry x="1640" y="560" width="140" height="70" as="geometry" />
        </mxCell>
        <mxCell id="fskcS8vX3NtvWgVeLze6-100" style="rounded=0;orthogonalLoop=1;jettySize=auto;html=1;entryX=1;entryY=0.5;entryDx=0;entryDy=0;dashed=1;endArrow=open;endFill=0;exitX=0;exitY=0.5;exitDx=0;exitDy=0;" parent="1" source="fskcS8vX3NtvWgVeLze6-91" target="fskcS8vX3NtvWgVeLze6-94" edge="1">
          <mxGeometry relative="1" as="geometry">
            <mxPoint x="1879" y="594" as="sourcePoint" />
            <mxPoint x="1780" y="594.38" as="targetPoint" />
          </mxGeometry>
        </mxCell>
        <mxCell id="fskcS8vX3NtvWgVeLze6-101" value="&lt;font style=&quot;font-size: 14px;&quot;&gt;&amp;lt;&amp;lt;include&amp;gt;&amp;gt;&lt;/font&gt;" style="edgeLabel;html=1;align=center;verticalAlign=middle;resizable=0;points=[];" parent="fskcS8vX3NtvWgVeLze6-100" vertex="1" connectable="0">
          <mxGeometry x="0.2526" y="2" relative="1" as="geometry">
            <mxPoint x="17" y="-12" as="offset" />
          </mxGeometry>
        </mxCell>
        <mxCell id="fskcS8vX3NtvWgVeLze6-110" value="" style="endArrow=none;html=1;rounded=0;exitX=1;exitY=0.5;exitDx=0;exitDy=0;" parent="1" source="fskcS8vX3NtvWgVeLze6-90" edge="1">
          <mxGeometry width="50" height="50" relative="1" as="geometry">
            <mxPoint x="850" y="670" as="sourcePoint" />
            <mxPoint x="2080" y="610" as="targetPoint" />
          </mxGeometry>
        </mxCell>
        <mxCell id="fskcS8vX3NtvWgVeLze6-111" value="" style="endArrow=none;html=1;rounded=0;exitX=1;exitY=0.5;exitDx=0;exitDy=0;" parent="1" source="fskcS8vX3NtvWgVeLze6-91" edge="1">
          <mxGeometry width="50" height="50" relative="1" as="geometry">
            <mxPoint x="2029" y="515" as="sourcePoint" />
            <mxPoint x="2080" y="630" as="targetPoint" />
          </mxGeometry>
        </mxCell>
        <mxCell id="fskcS8vX3NtvWgVeLze6-114" value="&lt;font style=&quot;font-size: 16px;&quot;&gt;View Restaurant Data&lt;/font&gt;" style="ellipse;whiteSpace=wrap;html=1;" parent="1" vertex="1">
          <mxGeometry x="1640" y="647.5" width="140" height="70" as="geometry" />
        </mxCell>
        <mxCell id="fskcS8vX3NtvWgVeLze6-115" style="rounded=0;orthogonalLoop=1;jettySize=auto;html=1;entryX=1;entryY=0.5;entryDx=0;entryDy=0;dashed=1;endArrow=open;endFill=0;exitX=0;exitY=1;exitDx=0;exitDy=0;" parent="1" source="fskcS8vX3NtvWgVeLze6-91" target="fskcS8vX3NtvWgVeLze6-114" edge="1">
          <mxGeometry relative="1" as="geometry">
            <mxPoint x="1879" y="680" as="sourcePoint" />
            <mxPoint x="1780" y="680" as="targetPoint" />
          </mxGeometry>
        </mxCell>
        <mxCell id="fskcS8vX3NtvWgVeLze6-116" value="&lt;font style=&quot;font-size: 14px;&quot;&gt;&amp;lt;&amp;lt;include&amp;gt;&amp;gt;&lt;/font&gt;" style="edgeLabel;html=1;align=center;verticalAlign=middle;resizable=0;points=[];" parent="fskcS8vX3NtvWgVeLze6-115" vertex="1" connectable="0">
          <mxGeometry x="0.2526" y="2" relative="1" as="geometry">
            <mxPoint x="5" y="-13" as="offset" />
          </mxGeometry>
        </mxCell>
        <mxCell id="fskcS8vX3NtvWgVeLze6-117" style="rounded=0;orthogonalLoop=1;jettySize=auto;html=1;dashed=1;endArrow=open;endFill=0;entryX=1;entryY=0.5;entryDx=0;entryDy=0;exitX=0;exitY=0;exitDx=0;exitDy=0;" parent="1" source="fskcS8vX3NtvWgVeLze6-91" target="fskcS8vX3NtvWgVeLze6-88" edge="1">
          <mxGeometry relative="1" as="geometry">
            <mxPoint x="1879" y="504" as="sourcePoint" />
            <mxPoint x="1780" y="500" as="targetPoint" />
          </mxGeometry>
        </mxCell>
        <mxCell id="fskcS8vX3NtvWgVeLze6-118" value="&lt;font style=&quot;font-size: 14px;&quot;&gt;&amp;lt;&amp;lt;include&amp;gt;&amp;gt;&lt;/font&gt;" style="edgeLabel;html=1;align=center;verticalAlign=middle;resizable=0;points=[];" parent="fskcS8vX3NtvWgVeLze6-117" vertex="1" connectable="0">
          <mxGeometry x="0.2526" y="2" relative="1" as="geometry">
            <mxPoint x="6" y="-12" as="offset" />
          </mxGeometry>
        </mxCell>
        <mxCell id="fskcS8vX3NtvWgVeLze6-119" style="edgeStyle=orthogonalEdgeStyle;rounded=0;orthogonalLoop=1;jettySize=auto;html=1;exitX=0.5;exitY=1;exitDx=0;exitDy=0;" parent="1" source="x6vma1YmDRyDS8Wvx9YM-2" target="x6vma1YmDRyDS8Wvx9YM-2" edge="1">
          <mxGeometry relative="1" as="geometry" />
        </mxCell>
      </root>
    </mxGraphModel>
  </diagram>
</mxfile>
